<?xml version="1.0" encoding="UTF-8"?>
<svg id="Layer_1" xmlns="http://www.w3.org/2000/svg" version="1.1" viewBox="0 0 150 150">
  <!-- Generator: Adobe Illustrator 29.3.1, SVG Export Plug-In . SVG Version: 2.1.0 Build 151)  -->
  <defs>
    <style>
      .st0 {
        fill: #8fe507;
        stroke: #000;
        stroke-miterlimit: 10;
      }
    </style>
  </defs>
  <path d="M21.9,14.9v-2.9c-.7-.2-1.7-.4-3.1-.4-4.3,0-6.6,2.7-6.6,7.2s2.5,7,6.2,7,2.1-.1,3.1-.4v-4h-2v-2.1h6.7v2.1h-1.9v5.8c-1.3.4-3.7.9-5.6.9-6.6,0-9.7-4.1-9.7-9.2s3.8-9.6,9.9-9.6,4.4.5,5.7,1v4.7h-2.6M34.7,17.7c2.1,0,3.5-1.1,3.5-3s-1.2-3-3.3-3h-2.4v6h2.2ZM27.6,25.6h1.8v-13.9c.1,0-1.8,0-1.8,0v-2.1h8.1c3.7,0,5.5,2.2,5.5,4.8s-2,4.6-4.3,4.8h0c1,.1,1.7,1,2.3,2l2,3.3c.5.9,1,1.1,1.6,1.1h.7v2.1h-1.7c-1.5,0-2.2-.2-3.3-1.9l-2.5-4.2c-.8-1.3-1.1-1.6-2-1.6h-1.6v5.6h2.1v2.1h-6.8v-2.1s-.1,0-.1,0ZM54.2,13.7c-.2-.5-.4-1.1-.5-1.7h0c0,.4-.2.9-.5,1.7l-2,5.1h4.8l-1.8-5.1h0ZM44.2,25.6h1.6l6.6-16.1h3.2l6.1,16.1h1.6v2.1h-6.7v-2.1h1.7l-1.6-4.5h-6.4l-1.7,4.5h1.9v2.1h-6.3s0-2.1,0-2.1ZM64.3,25.6h1.8v-13.9c.1,0-2,0-2,0v-2.1h12.8v4.8c.1,0-2.3,0-2.3,0l-.2-2.7h-5.3v5.6h5.6v2.3h-5.7v6h2.2v2.1h-7v-2.1M79.4,25.6h1.8v-13.9c.1,0-1.8,0-1.8,0v-2.1h6.7v2.1h-1.8v13.9c-.1,0,1.8,0,1.8,0v2.1h-6.7v-2.1M91.7,22.7v2.4c.5.3,1.8.6,3.3.6,2.3,0,3.8-1,3.8-3s-.9-2-2.8-2.6l-3.2-.9c-2.1-.6-4-1.8-4-4.7s3-5.3,6.9-5.3,4.1.5,5.5.9v4h-2.8v-2.2c-.4-.2-1.3-.4-2.7-.4-2.7,0-3.8,1.2-3.8,2.6s1.2,2.1,2.8,2.5l2.8.7c2.1.5,4.4,1.7,4.4,4.9s-2.7,5.7-7,5.7-4.6-.3-6.1-1v-4.4h2.9M116.9,14.9v-2.9c-.7-.2-1.7-.4-3.1-.4-4.3,0-6.6,2.7-6.6,7.2s2.5,7,6.2,7,2.6-.1,3.3-.3v-3.3h2.7v5c-1.3.4-3.6.9-5.8.9-6.5,0-9.6-4.1-9.6-9.2s3.8-9.6,9.9-9.6,4.4.5,5.7,1v4.7h-2.6M133.7,25.6h1.8v-5.9h-8.4v5.9h1.9v2.1h-6.7v-2.1h1.8v-13.9c.1,0-1.8,0-1.8,0v-2.1h6.7v2.1h-1.8v5.8h8.4v-5.8h-1.9v-2.1h6.7v2.1h-1.8v13.9c-.1,0,1.8,0,1.8,0v2.1h-6.7v-2.1M9.5,53.2h2.3v-17.3c.1,0-2.3,0-2.3,0v-2.6h8.3v2.6h-2.3v17.3c-.1,0,6.6,0,6.6,0l.3-3.8h3l-.3,6.4h-15.6v-2.6M31.2,53.2h2.2v-6.7c.1,0-7.7-10.6-7.7-10.6h-2v-2.6h8.2v2.6h-2.2c.3.3.5.5.6.8l5.2,7,5.1-7c.2-.3.4-.5.7-.8h-2.5v-2.6h7.9v2.6h-2l-7.6,10.6v6.7c-.1,0,2.3,0,2.3,0v2.6h-8.2v-2.6M62.1,39.9v-3.6c-.8-.2-2.1-.5-3.8-.5-5.4,0-8.2,3.3-8.2,8.9s3.1,8.7,7.7,8.7,3.2-.2,4-.3v-4.1h3.3v6.2c-1.6.5-4.5,1.1-7.1,1.1-8.1,0-11.9-5-11.9-11.4s4.7-11.9,12.2-11.9,5.5.6,7,1.2v5.8h-3.2M68.5,53.2h2.3v-17.3c.1,0-2.5,0-2.5,0v-2.6h15.8v5.9c.1,0-2.9,0-2.9,0l-.2-3.3h-6.5v7h6.4v2.8h-6.4v7.5h6.8l.3-3.7h3l-.3,6.3h-15.8v-2.6M86.9,33.3h8.2v2.6h-2.3v11.3c0,1.7,0,3.6,1.2,4.7,1,1,2.1,1.3,4,1.3s3.3-.3,4.3-1.3,1.3-2.4,1.3-4.6v-11.4h-2.6v-2.6h8.2v2.6h-2.2v12.1c0,3-1,5-2.6,6.3-1.5,1.2-4,1.8-6.6,1.8s-5.3-.6-6.8-1.9c-1.6-1.4-2.1-3.3-2.1-6.3v-12.1h-2.4v-2.6M112.1,53.2h2.3v-17.3c.1,0-2.4,0-2.4,0v-2.6h7.4l6.5,16.8c.2.6.4,1.2.5,1.8h0c.2-.6.3-1.3.5-1.8l6.4-16.8h7v2.6h-2.6v17.3h2.6v2.6h-8.2v-2.6h2.2v-15.2c.1,0,0,0,0,0-.3,1-.5,2-.9,3l-5.8,14.9h-3.6l-5.6-14.4c-.5-1.1-.7-2.3-1-3.4h0v15.2c-.1,0,2.4,0,2.4,0v2.6h-7.9v-2.6M15.1,132.4c1.6,0,2.8-.9,2.8-2.4s-.9-2.4-2.6-2.4h-1.9v4.8h1.8s-.1,0-.1,0ZM9.5,138.8h1.4v-11.1h-1.4v-1.7h6.5c3,0,4.4,1.7,4.4,3.8s-1.6,3.7-3.5,3.8h0c.8.1,1.3.8,1.8,1.6l1.6,2.7c.4.7.8.9,1.3.9h.5v1.7h-1.4c-1.2,0-1.8-.1-2.6-1.5l-2-3.4c-.6-1-.9-1.3-1.6-1.3h-1.2v4.5h1.6v1.7h-5.5v-1.7h.1ZM29.4,138.8c3.8,0,4.5-3.7,4.5-5.7s-.9-5.4-4.3-5.4-4.6,1.7-4.6,5.7,1.4,5.4,4.4,5.4ZM29.7,125.7c4.2,0,6.7,2.8,6.7,7.3s-2.2,7.8-7.1,7.8-6.9-2.8-6.9-7.3,2.8-7.8,7.3-7.8ZM40.5,138.8h1.5v-11.1h-2.8v2.1h-2.2v-3.8h12.3v3.8h-2v-2.1h-2.9v11.1h1.6v1.7h-5.5v-1.7M54.2,138.8h1.5v-11.1h-2.8v2.1h-2.2v-3.8h12.3v3.8h-2v-2.1h-2.9v11.1h1.6v1.7h-5.5v-1.7M64.8,138.8h1.5v-11.1h-1.6v-1.7h10.2v3.8h-1.8v-2.1h-4.3v4.5h4.1v1.8h-4.2v4.8h4.4l.2-2.4h1.9l-.2,4.1h-10.2v-1.7M82.7,132.4c1.6,0,2.8-.9,2.8-2.4s-.9-2.4-2.6-2.4h-1.9v4.8h1.8-.1ZM77,138.8h1.4v-11.1h-1.4v-1.7h6.5c3,0,4.4,1.7,4.4,3.8s-1.6,3.7-3.5,3.8h0c.8.1,1.4.8,1.8,1.6l1.6,2.7c.4.7.8.9,1.3.9h.5v1.7h-1.4c-1.2,0-1.8-.1-2.6-1.5l-2-3.4c-.6-1-.9-1.3-1.6-1.3h-1.2v4.5h1.6v1.7h-5.5v-1.7s.1,0,.1,0ZM97.5,138.8c3.5,0,5.5-2.2,5.5-5.8s-1.9-5.3-5.4-5.3h-2.3v11.1h2.2ZM91.3,138.8h1.5v-11.1h-1.5v-1.7h6.9c4.7,0,7.3,2.7,7.3,6.9s-2.7,7.6-7.4,7.6h-6.9v-1.7h.1ZM113.4,129.2c-.2-.4-.3-.9-.4-1.3h0c0,.5-.2.9-.4,1.3l-1.6,4.1h3.8l-1.4-4.1ZM105.4,138.8h1.2l5.3-12.8h2.6l4.9,12.8h1.3v1.7h-5.3v-1.7h1.3l-1.2-3.6h-5.1l-1.3,3.6h1.5v1.7h-5.1v-1.7h-.1ZM122.1,138.8h1.5v-11.1h-1.6v-1.7h4.8l4.2,10.8c.1.4.2.8.3,1.2h0c.1-.4.2-.8.3-1.2l4.1-10.8h4.5v1.7h-1.7v11.1h1.7v1.7h-5.3v-1.7h1.4v-9.8h0c-.2.6-.3,1.3-.6,1.9l-3.7,9.6h-2.3l-3.6-9.3c-.3-.7-.4-1.5-.6-2.2h0v9.8h1.6v1.7h-5.1v-1.7"/>
  <rect class="st0" x="9.5" y="61.6" width="130.9" height="59.4"/>
</svg>